# xmcd CD database file
#
# Track frame offsets:
#	150
#	20041
#	46080
#	60250
#	81978
#	96339
#	120443
#	147776
#	166110
#	188444
#	214210
#	234063
#
# Disc length: 3376 seconds
#
# Revision: 0
# Processed by: cddbd v1.5.2PL0 Copyright (c) Steve Scherf et al.
# Submitted via: CDex 1.51
#
DISCID=8e0d2e0c
DTITLE=Hilden, Arndt and Gross - The Vineyard Sessions
DYEAR=2009
DGENRE=Blues
TTITLE0=Desire
TTITLE1=Drowning In My Soul
TTITLE2=Love Ain`t Given Up On Me
TTITLE3=Blue Clouds
TTITLE4=500 Miles
TTITLE5=Stranger
TTITLE6=Golden Voice Blues
TTITLE7=Heading Towards Las Vegas
TTITLE8=Rock - Zabern
TTITLE9=When The Train Comes
TTITLE10=Ocean Breeze Motel
TTITLE11=Too Hot To Handle
EXTD=YEAR: 2009
EXTT0=
EXTT1=
EXTT2=
EXTT3=
EXTT4=
EXTT5=
EXTT6=
EXTT7=
EXTT8=
EXTT9=
EXTT10=
EXTT11=
PLAYORDER=
